<svg xmlns="http://www.w3.org/2000/svg" version="1.1" xmlns:xlink="http://www.w3.org/1999/xlink" xmlns:svgjs="http://svgjs.dev/svgjs" width="1500" height="935" viewBox="0 0 1500 935"><g transform="matrix(1,0,0,1,-0.9090909090909918,0.3785425101214628)"><svg viewBox="0 0 396 247" data-background-color="#ffffff" preserveAspectRatio="xMidYMid meet" height="935" width="1500" xmlns="http://www.w3.org/2000/svg" xmlns:xlink="http://www.w3.org/1999/xlink"><g id="tight-bounds" transform="matrix(1,0,0,1,0.2400000000000091,-0.09999999999999432)"><svg viewBox="0 0 395.52 247.2" height="247.2" width="395.52"><g><svg></svg></g><g><svg viewBox="0 0 395.52 247.2" height="247.2" width="395.52"><g transform="matrix(1,0,0,1,121.45158479999998,47.29158479999998)"><svg viewBox="0 0 152.61683040000003 152.61683040000003" height="152.61683040000003" width="152.61683040000003"><g><svg viewBox="0 0 152.61683040000003 152.61683040000003" height="152.61683040000003" width="152.61683040000003"><g><svg viewBox="0 0 152.61683040000003 152.61683040000003" height="152.61683040000003" width="152.61683040000003"><g id="textblocktransform"><svg viewBox="0 0 152.61683040000003 152.61683040000003" height="152.61683040000003" width="152.61683040000003" id="textblock"><g><svg viewBox="0 0 152.61683040000003 152.61683040000003" height="152.61683040000003" width="152.61683040000003"><g transform="matrix(1,0,0,1,31.34325032540115,31.34325032540115)"><svg viewBox="0 0 89.93032974919772 89.93032974919772" height="89.93032974919772" width="89.93032974919772"><g id="icon-0"><circle r="45" cx="44.96516487459886" cy="44.96516487459886" fill="#000000" data-fill-palette-color="accent"></circle><svg xmlns="http://www.w3.org/2000/svg" xmlns:xlink="http://www.w3.org/1999/xlink" version="1.1" x="13.489549462379658" y="13.489549462379658" viewBox="17.083 15.175999999999998 29.582500000000003 33.991" enable-background="new 0 0 64 64" xml:space="preserve" height="62.95123082443841" width="62.95123082443841" class="icon-xg-0" data-fill-palette-color="quaternary" id="xg-0"><path d="M45.35 41.485c-0.081-0.081-0.176-0.142-0.262-0.215-0.023-0.05-0.051-0.098-0.092-0.139l-7.071-7.071c-0.001-0.001-0.002-0.001-0.003-0.002l-2.512-2.512 9.993-9.993c1.681-1.682 1.681-4.418 0-6.099l-0.133-0.133c-0.188-0.188-0.52-0.188-0.707 0L31.875 28.012 19.186 15.322c-0.094-0.094-0.221-0.146-0.354-0.146h0c-0.133 0-0.26 0.053-0.354 0.147l-0.132 0.132c-0.814 0.814-1.263 1.897-1.263 3.049s0.449 2.235 1.263 3.05l9.993 9.993-2.512 2.512c-0.001 0.001-0.002 0.001-0.003 0.002l-7.071 7.071c-0.041 0.041-0.068 0.089-0.092 0.139-0.086 0.073-0.181 0.134-0.262 0.215-1.754 1.754-1.754 4.609 0 6.364 0.85 0.85 1.98 1.317 3.183 1.317s2.332-0.468 3.182-1.317c0.85-0.85 1.318-1.98 1.318-3.183s-0.468-2.332-1.318-3.182c-0.85-0.851-1.979-1.318-3.182-1.318-0.169 0-0.333 0.03-0.499 0.049l1.935-1.935c0.782 0.678 1.761 1.064 2.807 1.064 1.152 0 2.235-0.449 3.05-1.264l3-3 3 3c0.814 0.814 1.897 1.264 3.05 1.264 1.047 0 2.024-0.387 2.807-1.064l1.935 1.935c-0.166-0.019-0.33-0.049-0.499-0.049-1.202 0-2.332 0.468-3.182 1.318-0.851 0.85-1.318 1.979-1.318 3.182S38.135 47 38.985 47.85c0.85 0.85 1.979 1.317 3.182 1.317s2.332-0.468 3.183-1.317C47.104 46.095 47.104 43.239 45.35 41.485zM24.058 42.192c0.661 0.661 1.025 1.54 1.025 2.475 0 0.936-0.364 1.814-1.025 2.476-1.321 1.322-3.628 1.322-4.95 0-1.364-1.365-1.364-3.586 0-4.95 0.661-0.661 1.541-1.025 2.476-1.025S23.396 41.531 24.058 42.192zM44.906 16.393c1.077 1.3 1.007 3.236-0.21 4.454l-9.993 9.993-2.121-2.121L44.906 16.393zM28.168 37.375c-1.177 1.178-3.186 1.262-4.453 0.211l5.332-5.332 2.121 2.121L28.168 37.375zM35.582 37.375L19.054 20.847c-0.625-0.626-0.97-1.458-0.97-2.343 0-0.779 0.268-1.518 0.759-2.11l21.192 21.192C38.77 38.637 36.76 38.553 35.582 37.375zM44.643 47.143c-1.321 1.322-3.627 1.323-4.95 0-0.661-0.661-1.025-1.54-1.025-2.476 0-0.935 0.364-1.813 1.025-2.475s1.54-1.025 2.475-1.025c0.936 0 1.814 0.364 2.476 1.025C46.007 43.557 46.007 45.777 44.643 47.143z" fill="#ffffff" data-fill-palette-color="quaternary"></path><circle cx="32" cy="31.549" r="0.50" fill="#ffffff" data-fill-palette-color="quaternary"></circle></svg></g></svg></g><g id="text-0"><path d="M4.829 38.993v0c-0.373-0.144-0.796-0.109-1.27 0.106v0c-0.663 0.315-1.163 0.907-1.499 1.777v0c-0.296 0.765-0.457 1.676-0.483 2.733v0c-0.017 0.55 0.06 1.06 0.23 1.533v0c0.258 0.731 0.623 1.188 1.094 1.37v0c0.641 0.248 1.37 0.064 2.187-0.552v0c0.299-0.23 0.831-0.72 1.594-1.469 0.77-0.747 1.364-1.28 1.781-1.6v0c0.631-0.485 1.216-0.762 1.754-0.832 0.532-0.072 0.987-0.035 1.366 0.111v0c0.536 0.207 1.017 0.596 1.443 1.167v0c0.76 1.008 1.266 2.256 1.517 3.744v0c0.307 1.712 0.081 3.549-0.678 5.511v0c-0.729 1.883-1.788 3.194-3.18 3.934v0c-1.064 0.573-2.171 0.637-3.321 0.192v0c-0.732-0.283-1.437-0.861-2.115-1.731-0.675-0.878-1.047-1.773-1.115-2.687v0c-0.002-0.189 0.025-0.317 0.082-0.385 0.053-0.077 0.129 0.027 0.228 0.313v0c0.187 0.606 0.444 1.134 0.774 1.585v0c0.715 0.968 1.629 1.668 2.74 2.098v0c0.732 0.283 1.451 0.329 2.158 0.136v0c1.264-0.353 2.309-1.411 3.133-3.174v0c0.105-0.193 0.235-0.492 0.392-0.897 0.157-0.405 0.294-0.984 0.412-1.735 0.124-0.749 0.145-1.511 0.062-2.288v0c-0.196-1.669-0.796-2.935-1.8-3.797v0c-0.289-0.262-0.598-0.457-0.925-0.583v0c-0.732-0.283-1.504-0.202-2.315 0.243v0c-0.418 0.244-1.073 0.821-1.967 1.731-0.887 0.912-1.528 1.51-1.923 1.793v0c-0.884 0.613-1.708 0.771-2.472 0.475v0c-0.667-0.258-1.173-0.882-1.52-1.873v0c-0.49-1.415-0.358-3.097 0.396-5.045v0c0.354-0.915 0.78-1.608 1.278-2.077 0.497-0.469 1.046-0.663 1.645-0.581v0c0.112 0.021 0.224 0.053 0.335 0.096v0c0.418 0.162 0.72 0.5 0.904 1.015v0c0.112 0.352 0.145 0.781 0.099 1.29v0c-0.021 0.21-0.086 0.309-0.194 0.297v0c-0.145-0.034-0.177-0.204-0.096-0.511v0c0.134-0.542-0.001-0.959-0.406-1.251v0c-0.105-0.078-0.213-0.139-0.325-0.182z" fill="#000000" data-fill-palette-color="primary"></path><path d="M26.738 21.134c0.001 0.288 0.127 0.827 0.377 1.62 0.255 0.787 0.483 1.334 0.682 1.641 0.209 0.307 0.393 0.539 0.553 0.697 0.159 0.158 0.298 0.178 0.416 0.058v0c0.158-0.159 0.209-0.494 0.153-1.004v0c-0.087-0.748-0.303-1.62-0.648-2.616v0c-0.04-0.109-0.045-0.188-0.015-0.238v0c0.039-0.089 0.096-0.097 0.171-0.022v0c0.045 0.044 0.082 0.106 0.112 0.185v0c0.776 2.263 0.906 3.653 0.392 4.171v0c-0.237 0.239-0.542 0.317-0.914 0.233v0c-0.198-0.049-0.4-0.175-0.603-0.377-0.204-0.203-0.413-0.489-0.627-0.861v0c0.402 1.704 0.368 2.792-0.102 3.265v0c-0.128 0.129-0.287 0.209-0.475 0.239v0c-0.416 0.071-0.833-0.101-1.251-0.516v0c-0.801-0.796-1.268-1.952-1.401-3.469v0c-0.072-0.852 0.106-1.634 0.535-2.344v0c0.113-0.194 0.239-0.36 0.378-0.499v0c0.376-0.378 0.826-0.568 1.351-0.569v0c0.169 0.009 0.28 0.071 0.336 0.184 0.045 0.114 0.008 0.216-0.111 0.306v0c-0.387-0.207-0.732-0.159-1.033 0.144v0c-0.351 0.353-0.505 1.065-0.462 2.136v0c0.037 0.62 0.15 1.276 0.341 1.969v0c0.216 0.847 0.483 1.429 0.801 1.745 0.323 0.321 0.586 0.38 0.789 0.176v0c0.489-0.492 0.373-1.882-0.348-4.17v0c-0.145-0.461-0.223-0.8-0.234-1.018-0.006-0.213 0.073-0.402 0.237-0.566v0c0.035-0.035 0.131-0.107 0.289-0.217 0.158-0.11 0.262-0.204 0.311-0.283z" fill="#000000" data-fill-palette-color="primary"></path><path d="M50.289 5.368v0c-0.275 2.859-0.264 4.622 0.031 5.289v0c0.131 0.295 0.295 0.398 0.494 0.31v0c0.256-0.114 0.464-0.432 0.624-0.955v0c0.227-0.821 0.338-1.737 0.335-2.748v0c-0.008-0.173 0.028-0.258 0.106-0.254 0.078 0.004 0.129 0.031 0.152 0.083 0.026 0.058 0.032 0.212 0.021 0.462-0.015 0.26-0.027 0.468-0.034 0.625-0.007 0.157-0.037 0.461-0.09 0.913-0.059 0.456-0.128 0.801-0.208 1.036-0.077 0.241-0.199 0.494-0.365 0.76-0.163 0.272-0.396 0.474-0.697 0.608-0.301 0.133-0.624 0.096-0.97-0.112v0c-0.149-0.095-0.277-0.261-0.381-0.498-0.105-0.237-0.182-0.548-0.23-0.933-0.039-0.382 0.01-1.059 0.147-2.032v0c0.03-0.243 0.021-0.42-0.027-0.528-0.048-0.109-0.159-0.125-0.332-0.049-0.179 0.08-0.4 0.43-0.662 1.052-0.268 0.625-0.492 1.407-0.674 2.346-0.191 0.936-0.235 1.642-0.132 2.117v0c-0.179 0.08-0.347 0.065-0.501-0.042-0.149-0.111-0.247-0.22-0.296-0.329v0c-0.19-0.429-0.262-1.379-0.215-2.849v0c0.007-0.486-0.014-0.803-0.064-0.949-0.05-0.147-0.102-0.212-0.156-0.196-0.048 0.013-0.103 0.061-0.167 0.143v0c-0.153 0.175-0.342 0.535-0.568 1.08v0c-0.439 1-0.711 2.351-0.815 4.053v0c0 0.138-0.036 0.238-0.108 0.301-0.066 0.06-0.211 0.147-0.436 0.262-0.225 0.115-0.368 0.209-0.428 0.281v0c0.03-0.451 0.058-1.287 0.084-2.51v0c0.046-2.198 0.154-3.496 0.323-3.892v0c0.065-0.182 0.21-0.323 0.434-0.423v0c0.045-0.02 0.161-0.052 0.348-0.096 0.187-0.045 0.317-0.098 0.389-0.161v0c-0.297 0.385-0.495 1.661-0.593 3.828v0c0.221-0.834 0.399-1.392 0.535-1.675 0.133-0.289 0.229-0.504 0.289-0.645 0.069-0.138 0.12-0.249 0.152-0.332 0.035-0.077 0.084-0.191 0.148-0.342 0.066-0.144 0.117-0.255 0.152-0.331 0.038-0.07 0.093-0.171 0.165-0.303 0.066-0.129 0.122-0.219 0.168-0.27 0.043-0.058 0.104-0.138 0.18-0.242 0.074-0.11 0.134-0.174 0.179-0.194 0.051-0.023 0.113-0.065 0.185-0.128 0.069-0.069 0.13-0.088 0.181-0.057v0c0.248-0.01 0.412 0.074 0.492 0.254v0c0.071 0.16 0.072 0.647 0.003 1.459-0.069 0.813-0.112 1.349-0.127 1.609v0c0.21-0.791 0.443-1.465 0.702-2.024 0.249-0.563 0.593-1.129 1.03-1.699 0.438-0.57 0.788-0.913 1.051-1.029v0c0.064-0.028 0.123-0.043 0.176-0.044z" fill="#000000" data-fill-palette-color="primary"></path><path d="M75.266 1.392c-0.191 0.215-0.457 0.702-0.797 1.46-0.334 0.757-0.529 1.317-0.585 1.678-0.048 0.368-0.066 0.664-0.052 0.888 0.013 0.224 0.104 0.331 0.272 0.321v0c0.224-0.013 0.485-0.229 0.783-0.647v0c0.434-0.616 0.853-1.41 1.259-2.383v0c0.043-0.108 0.092-0.171 0.147-0.188v0c0.089-0.04 0.136-0.008 0.142 0.097v0c0.004 0.063-0.01 0.134-0.04 0.213v0c-0.929 2.205-1.757 3.329-2.484 3.372v0c-0.336 0.02-0.615-0.125-0.837-0.434v0c-0.115-0.169-0.182-0.396-0.199-0.683-0.017-0.287 0.018-0.64 0.105-1.06v0c-0.835 1.539-1.585 2.328-2.25 2.368v0c-0.182 0.011-0.353-0.035-0.514-0.138v0c-0.358-0.224-0.554-0.631-0.589-1.218v0c-0.067-1.127 0.354-2.3 1.264-3.521v0c0.514-0.684 1.167-1.148 1.961-1.392v0c0.214-0.069 0.418-0.109 0.614-0.121v0c0.532-0.032 0.994 0.127 1.387 0.475v0c0.12 0.119 0.162 0.24 0.127 0.361-0.042 0.115-0.138 0.166-0.285 0.154v0c-0.151-0.412-0.44-0.606-0.867-0.58v0c-0.497 0.03-1.086 0.458-1.767 1.286v0c-0.385 0.487-0.738 1.052-1.057 1.696v0c-0.403 0.776-0.591 1.387-0.565 1.835 0.027 0.455 0.184 0.674 0.472 0.657v0c0.693-0.041 1.532-1.156 2.517-3.343v0c0.198-0.44 0.366-0.745 0.504-0.915 0.138-0.163 0.322-0.251 0.553-0.265v0c0.049-0.003 0.169 0.007 0.36 0.031 0.191 0.024 0.331 0.022 0.421-0.004z" fill="#000000" data-fill-palette-color="primary"></path><path d="M100.505 4.265v0c-2.073 1.984-3.219 3.338-3.437 4.064v0c-0.087 0.289-0.026 0.464 0.183 0.527v0c0.564 0.169 1.607-0.561 3.127-2.191v0c0.113-0.134 0.199-0.175 0.256-0.121 0.057 0.054 0.078 0.107 0.061 0.161-0.018 0.06-0.062 0.121-0.131 0.18v0c-0.939 1.007-1.677 1.675-2.214 2.004-0.538 0.329-1.008 0.433-1.412 0.312-0.403-0.121-0.661-0.37-0.774-0.748v0c-0.072-0.175-0.071-0.387 0.004-0.636 0.075-0.248 0.222-0.534 0.443-0.855 0.212-0.317 0.687-0.8 1.423-1.451v0c0.181-0.165 0.289-0.305 0.323-0.419 0.034-0.114-0.043-0.199-0.23-0.255-0.188-0.056-0.622 0.084-1.302 0.422v0c-1.012 0.494-2.109 1.358-3.291 2.592v0c-0.099 0.087-0.194 0.136-0.285 0.145-0.089 0.003-0.255-0.029-0.499-0.095-0.252-0.061-0.423-0.079-0.511-0.054v0c0.281-0.304 0.848-0.924 1.701-1.862v0c1.507-1.656 2.446-2.578 2.817-2.767v0c0.168-0.096 0.369-0.109 0.604-0.038v0c0.047 0.014 0.156 0.065 0.327 0.153 0.171 0.088 0.305 0.132 0.4 0.131v0c-0.476 0.099-1.456 0.939-2.941 2.521v0c0.71-0.49 1.337-0.858 1.88-1.105 0.538-0.256 1.155-0.459 1.851-0.609 0.694-0.143 1.179-0.173 1.454-0.09v0c0.067 0.02 0.125 0.048 0.173 0.084z" fill="#000000" data-fill-palette-color="primary"></path><path d="M115.753 16.396v0c0.549-0.779 1.848-1.824 3.896-3.133v0l-0.731-0.516c-0.046-0.032-0.059-0.08-0.04-0.144 0.029-0.065 0.073-0.116 0.133-0.151 0.059-0.035 0.112-0.037 0.157-0.004v0l0.851 0.6c0.863-0.506 1.617-0.906 2.261-1.199 0.644-0.292 1.151-0.441 1.523-0.444 0.368 0.002 0.606 0.041 0.714 0.118 0.109 0.077 0.18 0.14 0.214 0.189v0c0.145 0.257 0.102 0.548-0.128 0.875-0.23 0.327-0.618 0.645-1.163 0.956-0.541 0.305-1.054 0.582-1.539 0.832v0l0.679 0.479c0.046 0.032 0.059 0.08 0.04 0.144-0.025 0.06-0.069 0.11-0.132 0.151-0.059 0.035-0.112 0.037-0.158 0.005v0l-0.825-0.582c-1.134 0.513-2.309 0.847-3.524 1.001v0l-1.345 1.214c-0.118 0.106-0.217 0.216-0.298 0.331-0.085 0.12-0.135 0.265-0.151 0.433-0.026 0.17 0.033 0.306 0.176 0.408v0c0.16 0.113 0.381 0.183 0.663 0.209v0c0.691-0.019 1.692-0.381 3.004-1.085v0c0.101-0.058 0.183-0.077 0.247-0.058 0.064 0.019 0.084 0.051 0.061 0.095-0.021 0.054-0.081 0.115-0.179 0.182v0c-0.776 0.431-1.347 0.718-1.715 0.863v0c-1.092 0.465-1.924 0.496-2.497 0.092v0c-0.292-0.206-0.456-0.485-0.492-0.836-0.036-0.351 0.064-0.693 0.298-1.025zM120.879 13.654l0.713 0.503c1.403-0.675 2.257-1.23 2.564-1.666v0c0.133-0.189 0.168-0.306 0.106-0.35v0c-0.103-0.073-0.368-0.032-0.794 0.122-0.426 0.154-1.289 0.618-2.589 1.391zM121.179 14.341v0l-0.662-0.466c-0.3 0.183-0.998 0.63-2.092 1.342v0c0.886-0.173 1.804-0.465 2.754-0.876z" fill="#000000" data-fill-palette-color="primary"></path><path d="M133.265 34.192v0c-0.261 0.19-0.323 0.378-0.187 0.565v0c0.317 0.437 1.591 0.46 3.821 0.071v0c0.176-0.032 0.268-0.013 0.276 0.059 0.009 0.072-0.01 0.124-0.055 0.157-0.051 0.037-0.223 0.08-0.517 0.128-0.295 0.059-0.581 0.106-0.858 0.143-0.282 0.041-0.662 0.073-1.138 0.098v0c-0.967 0.053-1.628-0.165-1.981-0.653v0c-0.231-0.318-0.281-0.667-0.151-1.047v0c0.057-0.172 0.191-0.334 0.401-0.486 0.21-0.152 0.5-0.29 0.871-0.412 0.361-0.123 1.031-0.221 2.011-0.291v0c0.248-0.016 0.421-0.059 0.517-0.129 0.096-0.07 0.087-0.184-0.028-0.343-0.115-0.159-0.546-0.31-1.291-0.453v0c-1.109-0.226-2.509-0.209-4.201 0.049v0c-0.187 0.041-0.384-0.081-0.59-0.364v0c-0.198-0.237-0.342-0.375-0.431-0.415v0c4.982-0.907 8.491-1.493 10.525-1.757v0c0.451-0.059 0.791-0.068 1.021-0.027 0.229 0.041 0.412 0.156 0.548 0.343v0c0.033 0.045 0.092 0.15 0.176 0.314 0.089 0.17 0.165 0.287 0.23 0.353v0c-0.491-0.068-1.658 0.013-3.502 0.243-1.838 0.226-3.675 0.499-5.513 0.82v0c0.877 0.039 1.597 0.123 2.159 0.252 0.558 0.124 1.159 0.337 1.803 0.639 0.639 0.307 1.043 0.577 1.212 0.81v0c0.041 0.057 0.07 0.114 0.086 0.171v0c-2.852 0.321-4.589 0.708-5.214 1.162z" fill="#000000" data-fill-palette-color="primary"></path><path d="M148.033 56.365c-0.253-0.136-0.788-0.282-1.604-0.439-0.814-0.15-1.403-0.211-1.768-0.182-0.369 0.038-0.661 0.089-0.876 0.155-0.215 0.065-0.298 0.178-0.25 0.338v0c0.065 0.215 0.335 0.419 0.811 0.613v0c0.699 0.28 1.569 0.505 2.609 0.675v0c0.115 0.017 0.187 0.05 0.216 0.099v0c0.06 0.077 0.039 0.131-0.061 0.161v0c-0.06 0.018-0.133 0.022-0.217 0.011v0c-2.359-0.395-3.644-0.941-3.854-1.64v0c-0.097-0.322-0.021-0.627 0.229-0.915v0c0.137-0.151 0.344-0.268 0.619-0.351 0.275-0.083 0.627-0.13 1.056-0.142v0c-1.69-0.457-2.631-1.005-2.823-1.643v0c-0.053-0.175-0.047-0.352 0.015-0.532v0c0.136-0.4 0.486-0.684 1.05-0.854v0c1.081-0.326 2.32-0.186 3.717 0.418v0c0.784 0.342 1.386 0.871 1.807 1.586v0c0.116 0.192 0.203 0.382 0.259 0.57v0c0.154 0.51 0.106 0.997-0.142 1.46v0c-0.088 0.144-0.196 0.213-0.322 0.207-0.122-0.015-0.194-0.095-0.216-0.243v0c0.366-0.242 0.488-0.568 0.365-0.977v0c-0.144-0.477-0.696-0.951-1.659-1.423v0c-0.562-0.263-1.194-0.475-1.894-0.637v0c-0.848-0.213-1.486-0.255-1.916-0.126-0.436 0.131-0.613 0.335-0.53 0.61v0c0.2 0.665 1.478 1.224 3.833 1.679v0c0.474 0.091 0.81 0.184 1.007 0.279 0.19 0.096 0.319 0.255 0.385 0.477v0c0.014 0.047 0.032 0.166 0.053 0.357 0.021 0.191 0.055 0.328 0.101 0.409z" fill="#000000" data-fill-palette-color="primary"></path><path d="M3.052 75.335c0-0.892 0.723-1.615 1.615-1.615 0.892 0 1.615 0.723 1.615 1.615 0 0.892-0.723 1.615-1.615 1.615-0.892 0-1.615-0.723-1.615-1.615z" fill="#000000" data-fill-palette-color="primary"></path><path d="M147.498 75.335c0-0.892 0.723-1.615 1.615-1.615 0.892 0 1.615 0.723 1.615 1.615 0 0.892-0.723 1.615-1.615 1.615-0.892 0-1.615-0.723-1.615-1.615z" fill="#000000" data-fill-palette-color="primary"></path></g><g id="text-1"><path d="M19.176 102.395l-12.99 5.534-0.823-2.331 5.532-2.209c2.028-0.805 3.475-1.36 4.341-1.666v0l1.009-0.334-10.184 1.543-0.815-2.31 8.887-5.279c-0.379 0.149-0.965 0.363-1.758 0.643v0c-1.349 0.476-2.596 0.89-3.743 1.243v0l-5.611 1.735-0.805-2.28 13.586-3.848 1.085 3.074-8.749 5.04 9.932-1.688z" fill="#000000" data-fill-palette-color="primary"></path><path d="M16.825 120.696c-0.291 0.195-0.48 0.38-0.565 0.555-0.095 0.173-0.126 0.379-0.093 0.618v0l-1.67 0.509c-0.259-0.501-0.384-0.953-0.375-1.355 0.005-0.408 0.162-0.812 0.468-1.211v0c-1.204 0.054-2.119-0.389-2.745-1.328v0c-0.498-0.746-0.645-1.508-0.44-2.286 0.211-0.782 0.734-1.451 1.567-2.008v0c0.974-0.65 1.916-0.842 2.829-0.574 0.912 0.267 1.754 0.978 2.525 2.132v0l0.461 0.691 0.63-0.421c0.565-0.378 0.899-0.744 0.999-1.097 0.101-0.354 0.005-0.75-0.287-1.187v0c-0.354-0.53-0.945-1.093-1.772-1.687v0l1.04-1.378c0.504 0.313 0.975 0.677 1.413 1.093 0.428 0.414 0.79 0.842 1.086 1.285v0c1.312 1.965 0.975 3.611-1.013 4.939v0zM13.731 118.033c0.362 0.542 1.007 0.706 1.934 0.491v0l1.889-1.261-0.327-0.49c-0.386-0.577-0.797-0.909-1.235-0.996-0.436-0.097-0.927 0.038-1.475 0.404v0c-0.461 0.308-0.758 0.62-0.892 0.937-0.128 0.313-0.093 0.618 0.106 0.915z" fill="#000000" data-fill-palette-color="primary"></path><path d="M30.943 123.785c0.916 0.888 1.399 1.941 1.449 3.16v0l-1.639 0.316c-0.087-0.465-0.205-0.862-0.353-1.192-0.149-0.33-0.352-0.619-0.609-0.868v0c-0.282-0.273-0.577-0.412-0.884-0.417-0.307-0.005-0.588 0.123-0.842 0.385v0c-0.254 0.262-0.368 0.561-0.343 0.898 0.025 0.337 0.205 0.877 0.539 1.62v0c0.421 0.915 0.617 1.711 0.589 2.385-0.029 0.675-0.336 1.314-0.922 1.919v0c-0.727 0.75-1.567 1.088-2.52 1.014-0.943-0.074-1.82-0.504-2.63-1.289v0c-0.529-0.512-0.922-1.079-1.18-1.699-0.263-0.625-0.394-1.265-0.395-1.92v0l1.812-0.118c0.08 1.005 0.405 1.783 0.975 2.334v0c0.322 0.312 0.659 0.473 1.011 0.482 0.352 0.009 0.675-0.137 0.968-0.439v0c0.22-0.227 0.357-0.449 0.413-0.668 0.061-0.214 0.052-0.477-0.028-0.788-0.074-0.316-0.237-0.737-0.488-1.264v0c-0.416-0.911-0.599-1.684-0.55-2.319 0.054-0.631 0.345-1.218 0.872-1.762v0c0.634-0.655 1.39-0.972 2.268-0.95 0.873 0.026 1.702 0.419 2.487 1.18z" fill="#000000" data-fill-palette-color="primary"></path><path d="M37.836 140.448l-0.11 1.772c-0.849 0.084-1.649-0.118-2.402-0.607v0c-0.782-0.508-1.232-1.122-1.349-1.841-0.121-0.714 0.07-1.459 0.573-2.236v0l3.419-5.265-1.058-0.687 0.99-1.526 1.059 0.687 1.3-2.002 2.265 1.107-1.466 2.258 1.711 1.111-1.193 1.394-1.509-0.979-3.419 5.265c-0.355 0.547-0.297 0.973 0.173 1.279v0c0.147 0.095 0.293 0.161 0.437 0.196 0.135 0.037 0.327 0.062 0.579 0.074z" fill="#000000" data-fill-palette-color="primary"></path><path d="M54.229 144.138c-0.045 0.11-0.195 0.424-0.45 0.941v0l-5.163-2.102c-0.368 1.054-0.48 1.848-0.334 2.384 0.139 0.533 0.49 0.915 1.055 1.145v0c0.396 0.161 0.778 0.237 1.145 0.228 0.371 0 0.798-0.073 1.28-0.217v0l0.425 1.717c-1.232 0.498-2.465 0.495-3.698-0.007v0c-1.312-0.534-2.13-1.397-2.455-2.588-0.334-1.188-0.165-2.607 0.506-4.256v0c0.671-1.649 1.537-2.818 2.598-3.507 1.051-0.685 2.19-0.778 3.417-0.278v0c1.169 0.476 1.908 1.272 2.217 2.39 0.31 1.118 0.129 2.501-0.543 4.15zM52.182 142.669l0.056-0.137c0.383-0.942 0.55-1.676 0.499-2.203-0.05-0.528-0.325-0.893-0.825-1.097v0c-0.468-0.19-0.911-0.125-1.329 0.197-0.419 0.322-0.869 1.001-1.352 2.038v0z" fill="#000000" data-fill-palette-color="primary"></path><path d="M67.709 141.729c0.31 0.058 0.577 0.158 0.799 0.3v0l-0.844 2.281c-0.257-0.112-0.499-0.19-0.727-0.232v0c-0.503-0.094-0.944 0.052-1.323 0.437-0.379 0.386-0.729 0.998-1.049 1.836v0l-1.092 5.83-2.46-0.461 1.985-10.605 2.14 0.401-0.171 1.883c0.759-1.313 1.673-1.869 2.742-1.67z" fill="#000000" data-fill-palette-color="primary"></path><path d="M87.52 137.986c0.802-0.132 1.535-0.107 2.197 0.075 0.661 0.175 1.301 0.503 1.921 0.984v0l-0.957 1.565c-0.478-0.312-0.933-0.528-1.365-0.65-0.425-0.122-0.859-0.146-1.302-0.073v0c-0.512 0.084-0.887 0.31-1.125 0.676-0.246 0.36-0.327 0.796-0.242 1.308v0c0.084 0.512 0.308 0.901 0.672 1.168 0.358 0.275 1.015 0.511 1.971 0.709v0c1.233 0.28 2.174 0.69 2.825 1.229 0.643 0.541 1.06 1.388 1.25 2.544v0c0.13 0.789 0.069 1.538-0.184 2.247-0.259 0.711-0.697 1.312-1.312 1.804-0.609 0.484-1.364 0.8-2.263 0.949v0c-0.927 0.153-1.76 0.123-2.498-0.089-0.74-0.219-1.439-0.583-2.098-1.093v0l1.054-1.623c0.548 0.35 1.062 0.603 1.542 0.758 0.48 0.155 0.983 0.19 1.509 0.103v0c0.616-0.101 1.065-0.371 1.348-0.809 0.276-0.436 0.36-0.987 0.251-1.65v0c-0.095-0.574-0.321-1.02-0.679-1.338-0.366-0.323-0.982-0.57-1.849-0.74v0c-1.32-0.294-2.303-0.718-2.948-1.272-0.652-0.553-1.059-1.314-1.218-2.283v0c-0.121-0.733-0.049-1.42 0.214-2.06 0.258-0.632 0.675-1.166 1.25-1.602 0.576-0.429 1.255-0.708 2.036-0.837z" fill="#000000" data-fill-palette-color="primary"></path><path d="M106.264 145.381l1.369 1.131c-0.431 0.736-1.065 1.265-1.903 1.586v0c-0.87 0.334-1.631 0.338-2.283 0.01-0.649-0.321-1.14-0.914-1.471-1.778v0l-2.252-5.86-1.178 0.452-0.652-1.698 1.178-0.453-0.856-2.228 2.227-1.182 0.965 2.513 1.905-0.732 0.426 1.785-1.678 0.645 2.251 5.861c0.234 0.609 0.612 0.812 1.136 0.611v0c0.164-0.063 0.302-0.142 0.415-0.238 0.109-0.087 0.243-0.228 0.401-0.425z" fill="#000000" data-fill-palette-color="primary"></path><path d="M116.059 129.942l3.331 10.696c0.396 1.291 0.458 2.465 0.185 3.521-0.27 1.047-0.93 1.974-1.979 2.781v0l-1.185-1.355c0.631-0.603 1.026-1.181 1.183-1.735 0.154-0.56 0.118-1.249-0.106-2.069v0l-0.793 0.497-8.049-7.687 2.156-1.353 6.368 6.769-3.223-8.741z" fill="#000000" data-fill-palette-color="primary"></path><path d="M130.341 132.464c-0.545 0.495-1.129 0.717-1.752 0.667-0.623-0.05-1.189-0.355-1.698-0.916v0l-8.679-9.562 1.676-1.877 8.786 9.679c0.118 0.13 0.246 0.208 0.383 0.234 0.133 0.021 0.259-0.022 0.378-0.13v0c0.067-0.061 0.126-0.133 0.175-0.215 0.049-0.082 0.083-0.132 0.104-0.151v0l1.51 0.944c-0.168 0.503-0.463 0.945-0.883 1.327z" fill="#000000" data-fill-palette-color="primary"></path><path d="M128.566 118.13l1.577-1.944 8.381 6.794-1.576 1.945zM125.166 113.775c0.283-0.349 0.624-0.541 1.023-0.578 0.395-0.031 0.767 0.094 1.116 0.377v0c0.338 0.274 0.529 0.605 0.575 0.994 0.047 0.399-0.071 0.773-0.354 1.121v0c-0.283 0.349-0.624 0.541-1.023 0.578-0.394 0.041-0.76-0.075-1.098-0.349v0c-0.349-0.283-0.546-0.623-0.593-1.022-0.047-0.399 0.071-0.773 0.354-1.121z" fill="#000000" data-fill-palette-color="primary"></path><path d="M135.554 106.981c0.606-1.123 1.489-1.873 2.649-2.251v0l0.749 1.491c-0.424 0.21-0.774 0.431-1.051 0.664-0.277 0.233-0.5 0.507-0.671 0.821v0c-0.186 0.346-0.24 0.667-0.161 0.964 0.079 0.297 0.278 0.533 0.599 0.706v0c0.321 0.173 0.64 0.202 0.957 0.086 0.317-0.116 0.788-0.435 1.413-0.958v0c0.767-0.654 1.479-1.058 2.136-1.213 0.657-0.155 1.356-0.033 2.097 0.366v0c0.919 0.496 1.473 1.213 1.66 2.15 0.184 0.928 0.009 1.889-0.528 2.882v0c-0.35 0.648-0.788 1.18-1.315 1.597-0.531 0.423-1.111 0.723-1.741 0.901v0l-0.605-1.713c0.946-0.35 1.607-0.874 1.983-1.571v0c0.213-0.395 0.276-0.763 0.189-1.105-0.087-0.341-0.315-0.612-0.685-0.811v0c-0.278-0.15-0.529-0.222-0.755-0.217-0.223-0.001-0.473 0.079-0.751 0.24-0.284 0.157-0.645 0.428-1.084 0.813v0c-0.764 0.647-1.458 1.034-2.083 1.159-0.622 0.119-1.266-0.002-1.932-0.361v0c-0.802-0.433-1.312-1.074-1.531-1.925-0.212-0.847-0.058-1.752 0.461-2.715z" fill="#000000" data-fill-palette-color="primary"></path><path d="M149.726 95.828l1.735-0.374c0.311 0.794 0.333 1.62 0.067 2.477v0c-0.277 0.89-0.746 1.49-1.407 1.798-0.654 0.31-1.424 0.328-2.307 0.053v0l-5.995-1.864-0.374 1.205-1.738-0.54 0.375-1.205-2.28-0.708 0.452-2.481 2.571 0.799 0.606-1.948 1.665 0.771-0.534 1.717 5.995 1.864c0.623 0.194 1.017 0.023 1.184-0.513v0c0.052-0.167 0.075-0.325 0.07-0.473-0.001-0.14-0.029-0.332-0.085-0.578z" fill="#000000" data-fill-palette-color="primary"></path></g></svg></g></svg></g></svg></g><g></g></svg></g></svg></g><g><path d="M182.362 45.754A76.308 76.308 0 0 1 213.158 45.754L212.57 45.754A75.721 75.721 0 0 0 182.95 45.754L182.362 45.754M182.362 201.446A76.308 76.308 0 0 0 213.158 201.446L212.57 201.446A75.721 75.721 0 0 1 182.95 201.446L182.362 201.446" fill="#000000" stroke="transparent" data-fill-palette-color="tertiary"></path></g></svg></g><defs></defs></svg><rect width="395.52" height="247.2" fill="none" stroke="none" visibility="hidden"></rect></g></svg></g></svg>