<svg id="visual" viewBox="0 0 960 540" width="960" height="540" xmlns="http://www.w3.org/2000/svg" xmlns:xlink="http://www.w3.org/1999/xlink" version="1.1"><path d="M0 121L22.8 133.8C45.7 146.7 91.3 172.3 137 167.7C182.7 163 228.3 128 274 108.3C319.7 88.7 365.3 84.3 411.2 89.7C457 95 503 110 548.8 119.7C594.7 129.3 640.3 133.7 686 126.2C731.7 118.7 777.3 99.3 823 97.5C868.7 95.7 914.3 111.3 937.2 119.2L960 127L960 0L937.2 0C914.3 0 868.7 0 823 0C777.3 0 731.7 0 686 0C640.3 0 594.7 0 548.8 0C503 0 457 0 411.2 0C365.3 0 319.7 0 274 0C228.3 0 182.7 0 137 0C91.3 0 45.7 0 22.8 0L0 0Z" fill="#585191" stroke-linecap="round" stroke-linejoin="miter"></path></svg>