<svg id="visual" viewBox="0 0 960 540" width="960" height="540" xmlns="http://www.w3.org/2000/svg" xmlns:xlink="http://www.w3.org/1999/xlink" version="1.1"><path d="M0 358L16 376.3C32 394.7 64 431.3 96 434.2C128 437 160 406 192 388.2C224 370.3 256 365.7 288 371.7C320 377.7 352 394.3 384 407.8C416 421.3 448 431.7 480 429.8C512 428 544 414 576 418.7C608 423.3 640 446.7 672 436.8C704 427 736 384 768 362C800 340 832 339 864 351.2C896 363.3 928 388.7 944 401.3L960 414L960 541L944 541C928 541 896 541 864 541C832 541 800 541 768 541C736 541 704 541 672 541C640 541 608 541 576 541C544 541 512 541 480 541C448 541 416 541 384 541C352 541 320 541 288 541C256 541 224 541 192 541C160 541 128 541 96 541C64 541 32 541 16 541L0 541Z" fill="#585191" stroke-linecap="round" stroke-linejoin="miter"></path></svg>