<svg id="visual" viewBox="0 0 960 540" width="960" height="540" xmlns="http://www.w3.org/2000/svg" xmlns:xlink="http://www.w3.org/1999/xlink" version="1.1"><path d="M0 413L22.8 406.3C45.7 399.7 91.3 386.3 137 386.3C182.7 386.3 228.3 399.7 274 399.3C319.7 399 365.3 385 411.2 390.2C457 395.3 503 419.7 548.8 430.3C594.7 441 640.3 438 686 427.3C731.7 416.7 777.3 398.3 823 403.2C868.7 408 914.3 436 937.2 450L960 464L960 541L937.2 541C914.3 541 868.7 541 823 541C777.3 541 731.7 541 686 541C640.3 541 594.7 541 548.8 541C503 541 457 541 411.2 541C365.3 541 319.7 541 274 541C228.3 541 182.7 541 137 541C91.3 541 45.7 541 22.8 541L0 541Z" fill="#f4cbc6" stroke-linecap="round" stroke-linejoin="miter"></path></svg>