<svg id="visual" viewBox="0 0 960 540" width="960" height="540" xmlns="http://www.w3.org/2000/svg" xmlns:xlink="http://www.w3.org/1999/xlink" version="1.1"><path d="M0 173L22.8 176.7C45.7 180.3 91.3 187.7 137 172.7C182.7 157.7 228.3 120.3 274 118.3C319.7 116.3 365.3 149.7 411.2 166.7C457 183.7 503 184.3 548.8 169.5C594.7 154.7 640.3 124.3 686 125C731.7 125.7 777.3 157.3 823 162.5C868.7 167.7 914.3 146.3 937.2 135.7L960 125L960 0L937.2 0C914.3 0 868.7 0 823 0C777.3 0 731.7 0 686 0C640.3 0 594.7 0 548.8 0C503 0 457 0 411.2 0C365.3 0 319.7 0 274 0C228.3 0 182.7 0 137 0C91.3 0 45.7 0 22.8 0L0 0Z" fill="#f4cbc6" stroke-linecap="round" stroke-linejoin="miter"></path></svg>